<?xml version="1.0" standalone="no"?>
<!DOCTYPE svg PUBLIC "-//W3C//DTD SVG 20010904//EN"
 "http://www.w3.org/TR/2001/REC-SVG-20010904/DTD/svg10.dtd">
<svg version="1.0" xmlns="http://www.w3.org/2000/svg"
 width="512.000000pt" height="512.000000pt" viewBox="0 0 512.000000 512.000000"
 preserveAspectRatio="xMidYMid meet">
<metadata>
Created by potrace 1.16, written by Peter Selinger 2001-2019
</metadata>
<g transform="translate(0.000000,512.000000) scale(0.100000,-0.100000)"
fill="#000000" stroke="none">
<path d="M1211 4740 c-78 -98 -111 -199 -111 -345 0 -165 38 -270 149 -406 87
-108 246 -260 326 -311 161 -104 260 -143 516 -203 232 -54 293 -80 358 -151
41 -45 51 -51 61 -39 22 26 77 29 136 6 46 -17 62 -19 106 -11 114 22 188 8
278 -54 25 -17 56 -31 70 -31 19 0 33 -12 60 -53 l35 -54 9 37 c17 74 148 163
296 202 102 27 350 23 350 -6 0 -21 -90 -142 -155 -207 -81 -82 -120 -100
-290 -134 -61 -12 -124 -31 -141 -41 -37 -22 -44 -23 -44 -6 0 22 -40 57 -65
57 -20 0 -25 -6 -30 -37 -3 -21 -11 -58 -16 -83 -6 -28 -6 -78 0 -135 25 -242
-66 -387 -274 -438 -72 -18 -330 -32 -363 -20 -21 8 -16 12 50 38 40 16 105
39 143 52 l70 23 -64 -6 c-80 -7 -258 -46 -365 -80 -77 -25 -196 -37 -211 -22
-4 4 3 20 17 36 43 51 82 136 75 163 -10 39 -46 49 -172 49 -107 0 -113 1
-108 19 5 18 46 51 102 81 l24 13 -21 -28 c-39 -50 -15 -39 70 31 157 129 226
194 242 228 10 22 16 60 16 109 0 66 3 78 30 115 30 42 86 85 128 97 34 10 28
-14 -23 -100 -24 -42 -41 -74 -36 -71 19 12 113 158 126 197 21 58 7 68 -47
36 l-44 -25 -13 28 c-17 41 -94 94 -171 120 -50 17 -102 24 -230 30 -91 4
-171 5 -177 3 -23 -9 -14 -59 23 -130 75 -146 183 -246 293 -273 42 -10 48
-14 44 -33 -2 -13 2 -9 11 10 8 17 23 36 34 42 17 9 20 6 26 -27 9 -54 7 -105
-4 -122 -8 -12 -10 -9 -10 11 0 35 -30 72 -49 60 -12 -8 -12 -16 -1 -55 11
-41 11 -49 -4 -65 -27 -30 -168 -128 -257 -179 -60 -34 -95 -63 -121 -98 -42
-55 -46 -76 -20 -119 10 -16 24 -50 31 -75 7 -25 17 -50 22 -57 7 -8 -16 -13
-88 -18 -248 -17 -400 -74 -523 -195 -80 -79 -92 -107 -24 -55 51 39 104 69
110 62 2 -2 -4 -15 -14 -28 -33 -42 -63 -109 -83 -186 -27 -106 -23 -113 9
-16 57 170 164 276 345 341 67 24 84 26 252 27 178 0 180 0 199 -24 54 -66
175 -80 278 -31 34 16 76 30 92 30 28 0 25 -4 -52 -76 -63 -59 -89 -91 -117
-148 -54 -108 -76 -262 -56 -386 6 -39 8 -31 14 60 3 58 14 132 23 165 23 87
79 193 134 256 58 64 60 59 29 -87 -27 -129 -36 -285 -19 -353 7 -28 37 -93
68 -144 31 -50 71 -119 89 -152 18 -33 33 -54 33 -46 0 8 -34 73 -75 145 -41
72 -81 151 -90 175 -29 84 -17 244 32 404 l18 58 1 -113 c0 -123 19 -216 61
-303 13 -27 21 -41 17 -30 -41 141 -61 319 -47 408 l8 48 44 -98 c71 -161 110
-349 112 -543 l0 -85 25 70 c46 129 22 255 -100 523 -57 124 -86 216 -72 229
16 16 121 -112 164 -200 107 -218 122 -467 39 -663 -36 -84 -153 -295 -216
-387 -71 -106 -78 -125 -90 -257 -6 -63 -14 -133 -17 -155 -4 -26 6 -8 29 55
64 180 118 266 263 421 53 57 114 126 136 153 91 114 128 234 108 357 -15 98
-47 172 -161 370 -93 163 -112 209 -89 209 5 0 53 -28 107 -63 54 -35 121 -76
148 -91 l50 -27 -50 46 c-27 26 -78 67 -113 92 -35 25 -61 47 -59 50 3 2 33
-3 67 -12 66 -17 88 -13 56 11 -19 13 -19 14 8 14 45 0 118 -82 146 -164 20
-62 22 -83 18 -205 -4 -134 5 -132 18 4 8 87 -8 179 -47 267 -32 73 -39 156
-18 219 6 19 42 66 79 104 80 82 98 115 108 193 l8 57 14 -55 c10 -34 15 -102
15 -180 0 -112 -3 -131 -27 -187 -29 -71 -28 -83 2 -23 30 59 50 155 50 244 0
80 -31 238 -57 289 -21 42 -8 32 20 -15 67 -116 100 -269 100 -463 -1 -118
-16 -225 -47 -330 -16 -51 36 68 56 130 20 61 23 90 22 230 -1 178 -13 243
-79 403 -20 48 -38 94 -42 102 -3 8 10 -6 29 -32 98 -133 169 -411 154 -598
-20 -228 -92 -451 -190 -590 -50 -70 -52 -75 -18 -51 53 37 143 123 184 174
21 27 38 46 38 43 0 -14 -55 -177 -76 -225 -33 -73 -30 -76 12 -11 45 69 81
148 124 273 19 53 38 97 42 97 15 0 9 -200 -8 -256 -22 -76 -86 -166 -154
-219 -76 -58 -191 -120 -260 -140 l-55 -15 55 6 c214 24 352 108 427 261 46
93 54 189 29 339 -12 67 -15 121 -11 173 19 225 -68 614 -196 868 l-46 92 56
6 c147 15 223 45 300 118 55 53 144 172 179 239 l26 50 -22 18 c-15 13 -49 20
-109 25 -205 18 -390 -27 -520 -126 -52 -39 -53 -39 -79 -22 l-26 17 23 19
c64 53 235 114 529 187 469 117 607 224 779 600 110 239 129 447 56 608 -13
28 -26 52 -28 52 -3 0 2 -22 10 -49 8 -27 13 -76 11 -108 l-3 -58 -19 50 c-21
57 -76 158 -82 152 -3 -2 5 -25 16 -51 34 -81 53 -168 53 -256 1 -131 -31
-171 -47 -60 -4 25 -14 56 -22 70 -14 24 -15 24 -8 -17 7 -50 0 -55 -20 -15
-19 37 -99 126 -138 154 -35 25 -33 19 35 -75 27 -36 57 -91 68 -121 58 -165
-21 -461 -156 -584 -33 -30 -77 -59 -110 -71 -89 -33 -87 -24 5 24 90 47 147
100 182 170 l20 40 -49 -51 c-72 -75 -203 -156 -203 -126 0 31 66 203 113 297
89 177 111 283 83 395 -28 109 -135 222 -271 286 -78 37 -97 29 -29 -12 123
-74 217 -191 230 -288 8 -57 -11 -163 -40 -229 -23 -51 -61 -96 -72 -84 -3 3
-15 43 -26 89 -26 107 -94 249 -153 316 -50 56 -80 71 -46 23 31 -43 89 -171
96 -211 l6 -35 -43 46 c-70 76 -168 143 -238 164 -14 4 7 -15 45 -42 71 -51
153 -131 174 -172 l12 -22 -39 20 c-77 39 -243 110 -237 101 3 -5 52 -37 110
-71 58 -34 129 -84 159 -111 77 -68 91 -110 91 -269 l0 -126 -42 -85 c-71
-143 -105 -164 -349 -213 -191 -39 -392 -118 -467 -185 -22 -19 -41 -28 -51
-24 -55 21 42 88 214 149 136 48 182 75 230 136 45 57 49 56 20 -1 -26 -51
-25 -60 5 -60 43 0 218 41 261 61 45 21 116 88 79 75 -30 -11 -166 -46 -180
-46 -7 0 22 35 64 78 83 84 136 173 147 243 l6 44 -27 -50 c-40 -74 -118 -167
-177 -212 -57 -44 -118 -78 -118 -67 0 4 12 37 26 73 55 136 64 280 27 405
-15 49 -59 146 -67 146 -2 0 3 -26 11 -57 24 -93 13 -295 -21 -398 -54 -159
-132 -241 -260 -271 -42 -10 -78 -15 -82 -12 -3 3 4 25 16 49 34 65 37 143 10
207 -35 81 -46 82 -42 2 2 -37 -1 -84 -7 -103 -16 -48 -78 -116 -155 -171 -71
-51 -120 -102 -144 -152 -14 -30 -20 -34 -55 -34 -21 0 -37 3 -35 8 2 4 20 41
40 82 95 189 67 405 -73 552 l-49 53 35 -70 c67 -134 83 -267 45 -386 -18 -57
-35 -92 -105 -206 -19 -32 -47 -42 -71 -25 -6 4 -24 37 -42 75 -17 37 -49 89
-70 115 -48 57 -68 95 -86 164 l-15 53 0 -51 c-1 -28 4 -65 10 -83 14 -39 9
-45 -25 -30 -41 19 -42 4 -2 -43 42 -48 96 -151 96 -182 0 -30 -11 -15 -84
116 -36 65 -91 155 -122 200 -110 159 -149 273 -149 432 0 92 0 96 -13 66 -36
-88 -39 -229 -8 -331 17 -55 48 -118 86 -174 46 -68 46 -68 3 -50 -21 9 -62
30 -92 48 -220 132 -284 461 -144 742 22 45 23 48 5 30 -36 -35 -92 -138 -115
-210 -32 -102 -29 -260 7 -419 15 -65 25 -121 22 -123 -5 -6 -63 20 -106 48
l-35 23 35 -38 c19 -21 61 -55 94 -77 32 -21 52 -39 43 -39 -33 0 -139 84
-194 153 -102 131 -158 275 -170 440 -9 134 -28 84 -27 -73 1 -101 6 -142 26
-213 l25 -88 -34 33 c-19 18 -48 62 -66 97 -27 56 -32 77 -35 162 -3 61 0 111
8 135 32 98 119 176 310 279 60 32 108 61 105 63 -15 15 -295 -103 -354 -149
-35 -28 -38 -8 -7 45 41 71 100 139 154 181 28 21 50 41 47 43 -2 2 -25 -8
-52 -22 -116 -63 -241 -210 -285 -333 -15 -45 -31 -146 -38 -242 0 -2 -9 4
-21 15 -55 49 -63 119 -24 203 14 30 24 56 21 58 -2 2 -24 -20 -49 -48 -40
-46 -47 -50 -53 -34 -11 28 11 180 39 268 14 42 23 77 21 77 -9 0 -58 -88 -80
-144 l-25 -61 7 69 c7 81 27 153 61 219 13 27 23 51 20 53 -2 2 -18 -14 -36
-36z m810 -1094 c29 -26 78 -61 109 -77 39 -21 46 -27 25 -23 -43 10 -99 39
-139 74 -38 34 -90 111 -101 150 -3 14 7 2 24 -26 16 -28 53 -72 82 -98z
m1141 -98 c-17 -24 -47 -59 -68 -78 -37 -34 -37 -34 7 18 24 29 53 66 64 82
11 16 21 27 23 25 2 -2 -10 -23 -26 -47z m-948 -189 c109 -19 206 -89 206
-147 0 -12 -1 -22 -3 -22 -1 0 -26 22 -55 49 -66 62 -121 89 -219 106 -77 14
-201 20 -191 9 3 -3 61 -16 128 -29 138 -28 204 -59 256 -119 30 -35 44 -66
29 -66 -3 0 -23 9 -45 20 -25 13 -58 20 -92 20 -49 -1 -51 -2 -34 -15 11 -8
46 -25 78 -37 32 -13 57 -27 55 -33 -2 -5 -20 -19 -39 -30 -36 -19 -37 -19
-95 -1 -105 33 -190 109 -251 224 -52 97 -53 96 91 88 67 -4 149 -11 181 -17z
m-66 -891 c4 -21 -16 -34 -31 -19 -7 7 -53 11 -117 11 -69 0 -112 4 -123 13
-14 10 9 12 125 12 125 0 143 -2 146 -17z m-60 -24 c32 -9 28 -17 -23 -42 -33
-16 -45 -28 -45 -44 l-1 -23 -19 24 c-47 56 5 107 88 85z m-80 -151 c12 -3 25
-9 28 -14 8 -13 -31 -11 -61 3 -28 12 -35 34 -7 23 9 -4 27 -10 40 -12z m392
-12 c-29 -55 -117 -82 -217 -66 l-48 8 60 13 c33 8 94 25 135 38 41 13 76 25
78 25 1 1 -2 -8 -8 -18z"/>
<path d="M2195 3231 l-30 -7 34 -12 c51 -18 83 -16 79 6 -4 19 -35 24 -83 13z"/>
<path d="M3548 3314 c-143 -34 -258 -133 -258 -220 0 -27 2 -25 30 24 60 104
214 177 427 202 66 7 66 7 -37 8 -58 0 -131 -6 -162 -14z"/>
<path d="M3660 3291 c-41 -9 -117 -42 -145 -65 -25 -19 -18 -19 75 -2 63 12
170 57 170 72 0 6 -59 3 -100 -5z"/>
<path d="M2785 3244 c-32 -16 -215 -193 -215 -207 0 -5 18 7 41 28 61 54 156
113 210 129 78 24 147 -8 164 -75 8 -33 -7 -45 -70 -53 -27 -4 -85 -25 -128
-47 -43 -21 -80 -39 -82 -39 -15 0 0 32 33 70 20 24 30 40 22 35 -43 -25 -81
-60 -106 -98 -15 -23 -49 -67 -76 -98 -26 -30 -48 -58 -48 -62 0 -4 34 16 76
43 42 28 86 50 98 50 21 0 61 -20 40 -20 -6 0 -20 -18 -33 -40 -12 -22 -34
-54 -49 -72 l-27 -33 30 21 c50 35 88 43 174 37 l80 -6 33 34 c19 19 41 45 50
59 l17 25 0 -30 c1 -43 -39 -107 -79 -128 l-35 -19 41 6 c51 7 58 -5 44 -70
-15 -67 -43 -115 -97 -170 -33 -33 -38 -41 -17 -27 50 35 108 105 131 158 65
146 94 238 88 276 -5 29 -12 39 -25 39 -16 0 -18 6 -13 53 10 100 -34 185
-118 228 -46 23 -113 25 -154 3z m210 -228 c49 -21 44 -36 -12 -36 -44 -1 -46
-2 -25 -13 34 -19 18 -26 -48 -20 -68 7 -98 -7 -131 -60 l-20 -32 7 30 c10 43
61 111 98 129 39 20 87 20 131 2z m-105 -96 c0 -16 -46 -34 -67 -26 -17 7 -17
8 1 22 23 16 66 19 66 4z"/>
<path d="M3481 3160 c-91 -36 -108 -50 -61 -50 39 0 109 31 135 60 24 26 14
25 -74 -10z"/>
<path d="M3480 3087 c-41 -4 -85 -14 -96 -20 -90 -50 -124 -75 -111 -80 21 -8
153 21 201 44 46 22 93 56 86 61 -3 2 -39 0 -80 -5z"/>
<path d="M2340 2749 c-47 -28 -89 -56 -95 -62 -5 -6 1 -4 15 4 14 9 58 35 98
58 62 37 81 51 70 51 -2 0 -41 -23 -88 -51z"/>
<path d="M2209 2663 c-13 -16 -12 -17 4 -4 16 13 21 21 13 21 -2 0 -10 -8 -17
-17z"/>
<path d="M2520 2446 c-100 -9 -113 -12 -65 -14 33 -1 119 4 190 12 162 17 64
19 -125 2z"/>
<path d="M1116 1813 c-14 -90 -2 -220 36 -376 l21 -87 -23 -100 c-12 -56 -20
-103 -18 -105 2 -3 19 41 37 98 61 193 136 328 251 451 36 39 54 62 40 53 -54
-37 -175 -166 -223 -239 l-52 -78 -12 36 c-26 74 -44 191 -45 286 0 54 -2 98
-3 98 -1 0 -5 -17 -9 -37z"/>
<path d="M1907 1706 c-13 -86 -8 -208 13 -291 23 -98 52 -170 134 -334 35 -69
80 -178 101 -241 51 -155 179 -449 190 -438 2 2 -7 35 -21 73 -75 205 -98 411
-69 622 16 113 17 144 7 202 -10 59 -59 197 -68 189 -1 -2 4 -28 13 -58 24
-92 21 -223 -8 -304 -13 -38 -29 -71 -35 -73 -6 -2 -44 46 -83 106 -122 187
-152 274 -160 466 -5 108 -7 122 -14 81z"/>
<path d="M2343 1528 c-4 -7 -9 -65 -11 -128 -4 -132 9 -182 77 -298 68 -117
84 -123 32 -12 -27 58 -57 127 -65 154 -26 76 -38 189 -28 246 10 52 9 59 -5
38z"/>
<path d="M3626 1432 c-24 -82 -79 -157 -153 -212 -70 -51 -91 -84 -123 -190
-29 -99 -67 -172 -139 -266 -52 -69 -162 -185 -256 -269 l-30 -27 30 17 c105
62 276 224 344 324 50 74 63 100 105 210 31 83 41 99 103 159 75 72 103 121
128 220 22 84 15 112 -9 34z"/>
</g>
</svg>